<?xml version="1.0" encoding="UTF-8" standalone="no"?>
<svg width="1380px" height="248px" viewBox="0 0 1380 248" version="1.1" xmlns="http://www.w3.org/2000/svg" xmlns:xlink="http://www.w3.org/1999/xlink">
    <!-- Generator: Sketch 3.7.2 (28276) - http://www.bohemiancoding.com/sketch -->
    <title>All_myApps</title>
    <desc>Created with Sketch.</desc>
    <defs>
        <rect id="path-1" x="0" y="0" width="52" height="52"></rect>
        <mask id="mask-2" maskContentUnits="userSpaceOnUse" maskUnits="objectBoundingBox" x="0" y="0" width="52" height="52" fill="white">
            <use xlink:href="#path-1"></use>
        </mask>
        <rect id="path-3" x="5" y="0" width="52" height="52"></rect>
        <mask id="mask-4" maskContentUnits="userSpaceOnUse" maskUnits="objectBoundingBox" x="0" y="0" width="52" height="52" fill="white">
            <use xlink:href="#path-3"></use>
        </mask>
    </defs>
    <g id="All" stroke="none" stroke-width="1" fill="none" fill-rule="evenodd">
        <g id="All_myApps">
            <g id="ic_menu" transform="translate(23.000000, 27.000000)" fill="#887B7B">
                <rect id="Rectangle-1-Copy-2" x="0" y="24" width="104" height="12" rx="2"></rect>
                <rect id="Rectangle-1-Copy-4" x="0" y="48" width="104" height="12" rx="2"></rect>
                <rect id="Rectangle-1-Copy-3" x="0" y="0" width="104" height="12" rx="2"></rect>
            </g>
            <g id="ic_search" transform="translate(231.000000, 9.000000)">
                <rect id="Rectangle-4" fill="#887B7B" transform="translate(67.698485, 66.698485) rotate(-315.000000) translate(-67.698485, -66.698485) " x="27.6984848" y="64.6984848" width="80" height="4" rx="2"></rect>
                <circle id="Oval-1" stroke="#C0C0C0" stroke-width="2" fill="#FAFAFA" cx="37.5" cy="37.5" r="37.5"></circle>
            </g>
            <g id="ic_news" transform="translate(448.000000, 29.000000)" fill="#887B7B">
                <path d="M10.7913208,55.0480957 L5.13366699,55.0270386 C5.13366699,55.0270386 3.15631104,54.6793823 2.22418213,53.5044556 C1.29205322,52.3295288 0.554138184,51.0880737 0.554138184,50.3499756 C0.554138184,49.6118774 0.570251465,8.28942871 0.570251465,8.28942871 C0.570251465,8.28942871 0.636901855,7.29077148 1.89471436,7.29077148 C3.15252686,7.29077148 3.14233398,8.33032227 3.14233398,8.33032227 L3.07509942,49.8038165 C3.07509942,49.8038165 3.48681641,52.4996338 6.0536499,52.4996338 C8.6204834,52.4996338 9.0246582,49.7999878 9.0246582,49.7999878 L9.0921966,2.1502575 C9.0921966,2.1502575 9.01861572,1.54699707 9.45599365,1.17358398 C9.89337158,0.800170898 10.7355957,0.893371582 10.7355957,0.893371582 L71.8704042,1.01507893 C71.8704042,1.01507893 72.9655762,0.828125002 73.2580566,1.25195312 C73.5505371,1.67578125 73.6083374,1.72888184 73.6083374,2.4418335 C73.6083374,3.15478515 73.5657907,50.0145228 73.5657907,50.0145228 C73.5657907,50.0145228 73.3598022,51.9180899 72.0951538,53.2581787 C70.8305054,54.5982676 70.1323853,55.05548 68.6152954,55.055481 C67.0982056,55.0554819 10.7913208,55.0480957 10.7913208,55.0480957 Z M11.7221046,49.9204076 L11.6486003,3.52346166 L70.9493478,3.56286314 L71.0163801,50.0882839 C71.0163801,50.0882839 70.280949,52.4798698 68.0351768,52.4798704 C65.7894046,52.4798711 10.963998,52.4561497 10.963998,52.4561497 C10.963998,52.4561497 11.4149472,51.5956682 11.5317738,50.8419765 C11.6486003,50.0882848 11.7221046,49.9204076 11.7221046,49.9204076 Z" id="frame"></path>
                <g id="content" transform="translate(19.000000, 19.000000)">
                    <path d="M0,9.99079514 C0,8.89130934 0.890925393,8 1.99742191,8 L17.0025781,8 C18.1057238,8 19,8.89821238 19,9.99079514 L19,26.0092049 C19,27.1086907 18.1090746,28 17.0025781,28 L1.99742191,28 C0.894276248,28 0,27.1017876 0,26.0092049 L0,9.99079514 Z M2,10 L17,10 L17,26 L2,26 L2,10 Z" id="Combined-Shape"></path>
                    <rect id="Rectangle-7" x="26" y="9" width="18" height="2" rx="1"></rect>
                    <rect id="Rectangle-7-Copy-3" x="0" y="0" width="44" height="2" rx="1"></rect>
                    <rect id="Rectangle-7-Copy" x="26" y="18" width="18" height="2" rx="1"></rect>
                    <rect id="Rectangle-7-Copy-2" x="26" y="26" width="18" height="2" rx="1"></rect>
                </g>
                <text id="News" font-family="Optima-Bold, Optima" font-size="11" font-weight="bold" letter-spacing="0.450999975">
                    <tspan x="27" y="14">News</tspan>
                </text>
            </g>
            <g id="ic_check_off" transform="translate(664.000000, 31.000000)" stroke="#979797" stroke-width="6" fill="#EFEFEF">
                <use id="Rectangle-11" mask="url(#mask-2)" xlink:href="#path-1"></use>
            </g>
            <g id="ic_check_on" transform="translate(856.000000, 31.000000)">
                <use id="Rectangle-11-Copy" stroke="#979797" mask="url(#mask-4)" stroke-width="6" fill="#EFEFEF" xlink:href="#path-3"></use>
                <path d="M28.2738636,40.1525433 L2.12132034,14 L1.28785871e-14,16.1213203 L26.1525433,42.2738636 L26,42.4264069 L28.1213203,44.5477272 L28.2738636,44.395184 L28.2842712,44.4055916 L30.4055916,42.2842712 L30.395184,42.2738636 L70.5477272,2.12132034 L68.4264069,2.13162821e-14 L28.2738636,40.1525433 Z" id="Combined-Shape" fill="#25A162"></path>
            </g>
            <g id="ic_weather" transform="translate(1059.000000, 26.000000)" fill="#D8D8D8">
                <path d="M27.2193914,38.0455313 C27.2280798,37.7166899 27.234622,37.4033479 27.234622,37.1127529 C27.234622,28.5660761 37.2435212,19.2463768 47.4743961,19.2463768 C55.4345075,19.2463768 63.0007465,24.8881373 65.9672941,31.4180059 C66.1639731,31.4096333 66.3616976,31.4054054 66.5603865,31.4054054 C74.3110493,31.4054054 80.5942029,37.8389666 80.5942029,45.7751665 C80.5942029,52.7271359 75.7728581,58.5260635 69.3671498,59.8574803 L69.3671498,60.1449275 L24.4589372,60.1449275 L24.4589372,59.9920951 C18.0871055,59.1150274 13.2318841,54.568348 13.2318841,49.0912652 C13.2318841,42.986496 19.2637115,38.0376028 26.7043478,38.0376028 C26.876805,38.0376028 27.0485054,38.0402614 27.2193914,38.0455313 Z M25.812702,37.2984832 C25.822011,36.9406263 25.8290204,36.5996365 25.8290204,36.2834008 C25.8290204,26.9826054 36.5528411,16.8405797 47.5144928,16.8405797 C56.0431835,16.8405797 64.1498681,22.9801426 67.328312,30.0861761 C67.5390395,30.0770647 67.7508872,30.0724638 67.9637681,30.0724638 C76.2680497,30.0724638 83,37.0736921 83,45.7101449 C83,53.8816508 76.9733734,60.5892588 69.2904853,61.2877894 L69.2891573,61.3478261 L25.2608696,61.3478261 C17.2887593,61.3478261 10.826087,55.9622658 10.826087,49.3188406 C10.826087,42.6754153 17.2887593,37.2898551 25.2608696,37.2898551 C25.4456451,37.2898551 25.6296098,37.2927482 25.812702,37.2984832 Z" id="cloud"></path>
                <path d="M35.815107,16.0760997 C33.3991655,12.886538 29.5706396,10.826087 25.2608696,10.826087 C17.9531018,10.826087 12.0289855,16.7502032 12.0289855,24.057971 C12.0289855,28.4450635 14.1640337,32.3334888 17.451757,34.7408738 C17.9509965,34.2038621 18.5035827,33.7030251 19.1028926,33.2438818 C16.2933763,31.4216065 14.4347826,28.2575623 14.4347826,24.6594203 C14.4347826,19.0125088 19.0125088,14.4347826 24.6594203,14.4347826 C27.8137262,14.4347826 30.6344225,15.8631354 32.509997,18.1083288 C33.5539502,17.3508767 34.6613987,16.6678552 35.815107,16.0760997 Z M0,24.6594203 C0,24.327249 0.261235916,24.057971 0.605566481,24.057971 L7.81472337,24.057971 C8.14916851,24.057971 8.42028986,24.3369636 8.42028986,24.6594203 C8.42028986,24.9915916 8.15905394,25.2608696 7.81472337,25.2608696 L0.605566481,25.2608696 C0.271121349,25.2608696 0,24.981877 0,24.6594203 Z M7.58057683,41.92696 C7.34983128,41.688016 7.35069245,41.3128439 7.59838313,41.0736517 L12.7842166,36.0657506 C13.0247963,35.8334255 13.4136292,35.8457792 13.6376265,36.0777351 C13.868372,36.3166791 13.8675108,36.6918513 13.6198202,36.9310434 L8.43398667,41.9389445 C8.19340698,42.1712697 7.80457407,42.1589159 7.58057683,41.92696 Z M7.99959159,7.61968533 C8.23033714,7.38074132 8.60531076,7.36850864 8.85300144,7.60770075 L14.0388349,12.6156019 C14.2794146,12.847927 14.2806385,13.2369542 14.0566412,13.4689102 C13.8258957,13.7078542 13.4509221,13.7200868 13.2032314,13.4808947 L8.01739789,8.47299355 C7.7768182,8.24066844 7.77559435,7.85164126 7.99959159,7.61968533 Z M24.664302,0.534563565 C24.9964226,0.540360753 25.2611005,0.806256431 25.2550911,1.15053455 L25.1292739,8.35859346 C25.123437,8.69298765 24.8397552,8.95919861 24.5173477,8.95357097 C24.185227,8.94777378 23.9205492,8.6818781 23.9265586,8.33759998 L24.0523757,1.12954108 C24.0582126,0.795146883 24.3418944,0.52893592 24.664302,0.534563565 Z M42.0564075,7.52358283 C42.291288,7.75846338 42.2969747,8.13359338 42.0534962,8.37707185 L36.9558525,13.4747156 C36.719364,13.711204 36.3303747,13.7056382 36.1023634,13.4776269 C35.8674829,13.2427463 35.8617963,12.8676163 36.1052747,12.6241379 L41.2029185,7.52649413 C41.4394069,7.29000571 41.8283962,7.29557152 42.0564075,7.52358283 Z" id="sun"></path>
            </g>
            <g id="ic_trash" transform="translate(1276.000000, 27.000000)" fill="#D8D8D8">
                <path d="M49.7276593,11.9803529 L49.7167703,12.0854786 L36.7301884,25.0720605 L28.4088634,16.9640032 C37.9346414,16.6779113 45.9730471,14.7119563 49.7276593,11.9803529 Z M51.7798214,9.61122896 L47.0903507,60.3199596 L4.76667702,60.3199596 L0.0141750527,9.16967297 L0.0795071319,9.16967297 C0.0268314826,8.9487126 0,8.72538068 0,8.5 C0,3.80557963 11.6405965,0 26,0 C40.3594035,0 52,3.80557963 52,8.5 C52,8.87663308 51.9250713,9.24754482 51.7798214,9.61122896 Z M3.25544067,12.6214614 L15.3347501,24.7007708 L23.5402369,16.9624581 C14.7992109,16.6942956 7.31618326,15.011445 3.25544067,12.6214614 Z M49.3793632,15.3429015 L47.3043923,35.3752577 L38.2091485,26.5131163 L49.3793632,15.3429015 Z M36.9175061,27.8047586 L46.3735113,36.699191 L36.726702,46.0927228 L27.678122,37.0441427 L36.9175061,27.8047586 Z M35.412818,26.3894309 L26.0134885,17.5483083 L16.8165135,26.1825342 L26.2181141,35.5841348 L35.412818,26.3894309 Z M16.9785188,47.743746 L26.0134878,56.524661 L35.2472728,47.5333095 L26.2181141,38.5041507 L16.9785188,47.743746 Z M15.4976911,46.3045577 L5.61441703,36.699191 L15.310428,27.5964646 L24.7581061,37.0441427 L15.4976911,46.3045577 Z M8.17966354,56.5426012 L22.9471901,56.5426012 L15.5132459,49.2090189 L8.17966354,56.5426012 Z M6.65832015,55.1439287 L4.95200421,38.7903592 L14.0433155,47.7589333 L6.65832015,55.1439287 Z M2.44129023,14.7273269 L4.54373083,34.8774103 L13.831962,26.1179986 L2.44129023,14.7273269 Z M45.3056509,54.6716717 L46.9186181,39.0996308 L38.2353031,47.6013238 L45.3056509,54.6716717 Z M44.2565646,56.5426012 L29.1030129,56.5426012 L36.7598649,49.0459015 L44.2565646,56.5426012 Z M25.871084,14.6300195 C38.6545501,14.6300195 49.017597,12.0265509 49.017597,8.81500974 C49.017597,5.60346854 38.6545501,3 25.871084,3 C13.0876179,3 2.724571,5.60346854 2.724571,8.81500974 C2.724571,12.0265509 13.0876179,14.6300195 25.871084,14.6300195 Z"></path>
            </g>
            <g id="ic_todo" transform="translate(20.000000, 140.000000)" fill="#887B7B">
                <path d="M16.779661,24.4640373 C16.779661,23.3567173 17.6724017,22.4590571 18.7698272,22.4590571 L108.009834,22.4590571 C109.108972,22.4590571 110,23.3607855 110,24.4640373 L110,31.2481215 C110,32.3554415 109.107259,33.2531017 108.009834,33.2531017 L18.7698272,33.2531017 C17.6706888,33.2531017 16.779661,32.3513733 16.779661,31.2481215 L16.779661,24.4640373 Z M0,50.2925982 C0,47.3202413 2.4142215,44.91067 5.37881354,44.91067 C8.34945023,44.91067 10.7576271,47.3199505 10.7576271,50.2925982 L10.7576271,50.3242256 C10.7576271,53.2965825 8.34340558,55.7061538 5.37881354,55.7061538 C2.40817685,55.7061538 0,53.2968733 0,50.3242256 L0,50.2925982 Z M16.779661,46.0521266 C16.779661,44.9448066 17.6724017,44.0471464 18.7698272,44.0471464 L108.009834,44.0471464 C109.108972,44.0471464 110,44.9488749 110,46.0521266 L110,52.8362109 C110,53.9435309 109.107259,54.8411911 108.009834,54.8411911 L18.7698272,54.8411911 C17.6706888,54.8411911 16.779661,53.9394626 16.779661,52.8362109 L16.779661,46.0521266 Z M0,27.8409853 C0,24.8686284 2.4142215,22.4590571 5.37881354,22.4590571 C8.34945023,22.4590571 10.7576271,24.8683376 10.7576271,27.8409853 L10.7576271,27.8726127 C10.7576271,30.8449696 8.34340558,33.2545409 5.37881354,33.2545409 C2.40817685,33.2545409 0,30.8452604 0,27.8726127 L0,27.8409853 Z M16.779661,2.87594795 C16.779661,1.76862796 17.6724017,0.870967742 18.7698272,0.870967742 L108.009834,0.870967742 C109.108972,0.870967742 110,1.7726962 110,2.87594795 L110,9.6600322 C110,10.7673522 109.107259,11.6650124 108.009834,11.6650124 L18.7698272,11.6650124 C17.6706888,11.6650124 16.779661,10.7632839 16.779661,9.6600322 L16.779661,2.87594795 Z M0,5.38937241 C0,2.41701552 2.4142215,0.00744416873 5.37881354,0.00744416873 C8.34945023,0.00744416873 10.7576271,2.41672469 10.7576271,5.38937241 L10.7576271,5.42099976 C10.7576271,8.39335666 8.34340558,10.802928 5.37881354,10.802928 C2.40817685,10.802928 0,8.39364748 0,5.42099976 L0,5.38937241 Z" id="Combined-Shape"></path>
            </g>
            <g id="ic_location" transform="translate(255.000000, 140.000000)">
                <path d="M37.95559,13.3847428 C43.6971853,17.5589921 47.4358974,24.36957 47.4358974,32.0625 C47.4358974,44.7619113 37.2475055,55.0568182 24.6794872,55.0568182 C12.1114688,55.0568182 1.92307692,44.7619113 1.92307692,32.0625 C1.92307692,24.6131546 5.42877642,17.9911694 10.8640675,13.7891298 L14.6138063,22.40915 C14.6138063,22.40915 15.1022182,23.5383799 17.329076,25.1557011 C19.5559337,26.7730223 22.5175578,25.0489646 24.2416805,27.1417133 C25.9658032,29.2344621 23.8556774,27.7440213 25.0204899,30.0651928 C26.1853023,32.3863642 25.8659012,29.7344929 26.6003091,31.6014668 C27.3347171,33.4684407 25.6489975,34.1437219 26.1246536,35.6888784 C26.6003096,37.234035 26.0276558,38.4249978 27.7983034,40.1878931 C29.568951,41.9507884 30.0479882,41.8003969 30.0479874,42.4905881 C30.0479865,43.1807794 27.9018359,49.0735326 27.9018356,49.7522793 C27.9018354,50.431026 27.1557645,53.1326669 30.0237379,51.292887 C32.8917113,49.4531071 34.4465813,48.4726939 35.5842747,46.8389167 C36.7219681,45.2051396 37.2483201,44.0241539 38.495955,42.8892387 C39.7435898,41.7543235 40.5101135,40.286492 40.8451054,39.2055723 C41.1800972,38.1246526 41.9960116,37.0223102 41.15425,35.9544498 C40.3124883,34.8865894 39.0261033,34.3525117 37.7215688,32.3049702 C36.4170344,30.2574288 36.6953958,29.8209243 35.8716383,29.3892601 C35.0478809,28.9575959 32.7752555,27.8700747 31.8412873,27.8700741 C30.9073192,27.8700736 30.7991408,28.9112308 29.6354558,28.9112315 C28.4717707,28.9112322 27.8839745,28.2402599 27.8839752,27.4290202 C27.883976,26.6177804 27.367912,25.8589203 26.9016534,26.0682967 C26.4353948,26.2776732 25.6585408,25.7804231 25.8915972,25.0085054 C26.1246535,24.2365876 25.5014271,23.4530782 24.6226378,23.7523965 C23.7438484,24.0517148 23.03495,24.2854467 22.6222733,23.2665916 C22.2095967,22.2477364 21.7080531,21.215676 22.5220809,20.7970707 C23.3361086,20.3784655 25.3431526,19.1974797 26.3013698,19.9972753 C27.2595871,20.7970709 27.3061989,23.2649776 28.8584559,20.7414621 C30.4107129,18.2179466 31.4972936,16.6582648 32.8276749,15.6934042 C34.0679114,14.7939212 37.6691348,14.1698695 37.95559,13.3847428 Z M24.6794872,57 C38.3095916,57 49.3589744,45.8351009 49.3589744,32.0625 C49.3589744,18.2898991 38.3095916,7.125 24.6794872,7.125 C11.0493828,7.125 0,18.2898991 0,32.0625 C0,45.8351009 11.0493828,57 24.6794872,57 Z" id="Combined-Shape" fill="#887B7B"></path>
                <path d="M37.4048763,35.1969368 C37.4048763,35.1969368 49.8097525,19.3400595 49.8097525,12.4590927 C49.8097525,5.57812579 44.2559002,0 37.4048763,0 C30.5538523,0 25,5.57812579 25,12.4590927 C25,19.3400595 37.4048763,35.1969368 37.4048763,35.1969368 Z M37.4048763,17.4427297 C40.8303882,17.4427297 43.6073144,14.6536668 43.6073144,11.2131834 C43.6073144,7.77269996 40.8303882,4.98363706 37.4048763,4.98363706 C33.9793643,4.98363706 31.2024381,7.77269996 31.2024381,11.2131834 C31.2024381,14.6536668 33.9793643,17.4427297 37.4048763,17.4427297 Z" id="Combined-Shape-Copy-2" fill="#D44A4A"></path>
            </g>
            <g id="ic_add" transform="translate(446.000000, 129.000000)">
                <circle id="Oval-20" fill="#979797" cx="39.5" cy="39.5" r="39.5"></circle>
                <polygon id="+" fill="#FFFFFF" points="36.99728 25.28 36.99728 36.99728 25.28 36.99728 25.28 42.344 36.99728 42.344 36.99728 54.06128 42.344 54.06128 42.344 42.344 54.06128 42.344 54.06128 36.99728 42.344 36.99728 42.344 25.28"></polygon>
            </g>
        </g>
    </g>
</svg>