<?xml version="1.0" encoding="UTF-8" standalone="no"?>
<svg width="1380px" height="114px" viewBox="0 0 1380 114" version="1.1" xmlns="http://www.w3.org/2000/svg" xmlns:xlink="http://www.w3.org/1999/xlink">
    <!-- Generator: Sketch 3.7.2 (28276) - http://www.bohemiancoding.com/sketch -->
    <title>All_logo</title>
    <desc>Created with Sketch.</desc>
    <defs>
        <linearGradient x1="50%" y1="227.264143%" x2="50%" y2="0%" id="linearGradient-1">
            <stop stop-color="#BAB6B6" offset="0%"></stop>
            <stop stop-color="#362C2C" offset="100%"></stop>
        </linearGradient>
        <linearGradient x1="134.573726%" y1="50%" x2="-9.5499325%" y2="19.2804471%" id="linearGradient-2">
            <stop stop-color="#CAC8C8" offset="0%"></stop>
            <stop stop-color="#5A4F4F" offset="100%"></stop>
        </linearGradient>
        <linearGradient x1="110.992279%" y1="58.427064%" x2="-17.3922002%" y2="30.1195428%" id="linearGradient-3">
            <stop stop-color="#E9E9E9" offset="0%"></stop>
            <stop stop-color="#705454" offset="100%"></stop>
        </linearGradient>
        <linearGradient x1="100%" y1="50%" x2="-14.8115652%" y2="76.8961193%" id="linearGradient-4">
            <stop stop-color="#D4CECE" offset="0%"></stop>
            <stop stop-color="#554343" offset="100%"></stop>
        </linearGradient>
        <linearGradient x1="214.155893%" y1="94.5523617%" x2="0%" y2="7.9213757%" id="linearGradient-5">
            <stop stop-color="#CAC8C8" offset="0%"></stop>
            <stop stop-color="#473D3D" offset="100%"></stop>
        </linearGradient>
        <linearGradient x1="191.650773%" y1="25.0145623%" x2="-45.5462153%" y2="50%" id="linearGradient-6">
            <stop stop-color="#E9E9E9" offset="0%"></stop>
            <stop stop-color="#393232" offset="100%"></stop>
        </linearGradient>
        <linearGradient x1="130.64247%" y1="116.54931%" x2="-19.0663171%" y2="20.9934203%" id="linearGradient-7">
            <stop stop-color="#D4CECE" offset="0%"></stop>
            <stop stop-color="#625353" offset="100%"></stop>
        </linearGradient>
        <linearGradient x1="50%" y1="0%" x2="50%" y2="100%" id="linearGradient-8">
            <stop stop-color="#D5D4D4" offset="0%"></stop>
            <stop stop-color="#2C2727" offset="100%"></stop>
        </linearGradient>
        <linearGradient x1="50%" y1="0%" x2="50%" y2="100%" id="linearGradient-9">
            <stop stop-color="#D5D4D4" offset="0%"></stop>
            <stop stop-color="#1C1616" offset="100%"></stop>
        </linearGradient>
        <linearGradient x1="50%" y1="0%" x2="50%" y2="100%" id="linearGradient-10">
            <stop stop-color="#DBD8D8" offset="0%"></stop>
            <stop stop-color="#4D3F3F" offset="100%"></stop>
        </linearGradient>
        <linearGradient x1="0%" y1="67.8892507%" x2="0%" y2="-28.6467392%" id="linearGradient-11">
            <stop stop-color="#DAD9D9" offset="0%"></stop>
            <stop stop-color="#514949" offset="100%"></stop>
        </linearGradient>
        <linearGradient x1="0%" y1="66.320808%" x2="0%" y2="-27.6641596%" id="linearGradient-12">
            <stop stop-color="#E0DFDF" offset="0%"></stop>
            <stop stop-color="#4C4141" offset="100%"></stop>
        </linearGradient>
        <linearGradient x1="0%" y1="67.5428914%" x2="0%" y2="-27.436938%" id="linearGradient-13">
            <stop stop-color="#E9E9E9" offset="0%"></stop>
            <stop stop-color="#4C4545" offset="100%"></stop>
        </linearGradient>
        <linearGradient x1="100%" y1="0%" x2="26.9007389%" y2="74.1864956%" id="linearGradient-14">
            <stop stop-color="#7A6969" offset="0%"></stop>
            <stop stop-color="#DCC9C9" offset="100%"></stop>
        </linearGradient>
        <linearGradient x1="34.1461041%" y1="63.5322977%" x2="100%" y2="0%" id="linearGradient-15">
            <stop stop-color="#CAC6C6" offset="0%"></stop>
            <stop stop-color="#655B5B" offset="100%"></stop>
        </linearGradient>
        <linearGradient x1="66.5753128%" y1="5.00125375%" x2="81.4523039%" y2="98.3250644%" id="linearGradient-16">
            <stop stop-color="#FAA63E" offset="0%"></stop>
            <stop stop-color="#FF3D29" offset="100%"></stop>
        </linearGradient>
        <linearGradient x1="35.0746794%" y1="16.0167408%" x2="57.6874886%" y2="87.8095208%" id="linearGradient-17">
            <stop stop-color="#FBAD3F" offset="0%"></stop>
            <stop stop-color="#FF3C28" offset="100%"></stop>
        </linearGradient>
        <linearGradient x1="3.43981348%" y1="31.9476113%" x2="100%" y2="59.2451929%" id="linearGradient-18">
            <stop stop-color="#C8CBCD" offset="0%"></stop>
            <stop stop-color="#87878E" offset="100%"></stop>
        </linearGradient>
        <linearGradient x1="0%" y1="0%" x2="100%" y2="100%" id="linearGradient-19">
            <stop stop-color="#3071C4" offset="0%"></stop>
            <stop stop-color="#195DAA" offset="100%"></stop>
        </linearGradient>
    </defs>
    <g id="All" stroke="none" stroke-width="1" fill="none" fill-rule="evenodd">
        <g id="All_logo">
            <g id="sketch" transform="translate(12.000000, -1.000000)">
                <g id="layer-1">
                    <polygon id="Rectangle-1" fill="#FFE898" points="40 19 86 19 103 50 23 50"></polygon>
                    <polygon id="Rectangle-2" fill="#F8CA4A" points="18 10 40 19 23 50 0 30"></polygon>
                    <polygon id="Rectangle-2-Copy" fill="#F8CA4A" transform="translate(106.000000, 30.000000) scale(-1, 1) translate(-106.000000, -30.000000) " points="104 10 126 19 109 50 86 30"></polygon>
                    <polygon id="Polygon-1" fill="#FAB32A" points="86 8.8817842e-16 108 10 86 19 40 19 18 10 40 8.8817842e-16"></polygon>
                    <polygon id="Polygon-2" fill="#D33A04" points="0 30.1590296 23 50.0000006 63 114.000003"></polygon>
                    <polygon id="Polygon-2-Copy" fill="#D33A04" transform="translate(94.500000, 72.079516) scale(-1, 1) translate(-94.500000, -72.079516) " points="63 30.1590296 86 50.0000006 126 114.000003"></polygon>
                    <polygon id="Polygon-2-Copy-2" fill="#DE5B0F" transform="translate(63.006001, 82.000002) scale(-1, 1) translate(-63.006001, -82.000002) " points="23.012001 50.0000006 103 50.0000006 63.012001 114.000003"></polygon>
                </g>
                <g id="layer-2" style="mix-blend-mode: overlay;">
                    <g id="A" transform="translate(23.000000, 19.000000)">
                        <polygon id="Polygon-5" fill="#ABA8A8" points="16.9999996 0 40 13.2697258 0 31"></polygon>
                        <polygon id="Polygon-5-Copy" fill="#ABA8A8" transform="translate(60.000000, 15.500000) scale(-1, 1) translate(-60.000000, -15.500000) " points="56.9999996 0 80 13.2697258 40 31"></polygon>
                        <polygon id="Polygon-5-Copy-2" fill="#E2E2E2" transform="translate(40.000000, 6.634863) scale(-1, 1) translate(-40.000000, -6.634863) " points="63 0 40 13.2697258 17 0"></polygon>
                        <polygon id="Polygon-5-Copy-3" fill="url(#linearGradient-1)" transform="translate(40.000000, 22.134863) scale(-1, 1) translate(-40.000000, -22.134863) " points="80 31 40 13.2697258 0 31"></polygon>
                    </g>
                    <g id="B" transform="translate(0.000000, 10.000000)">
                        <polygon id="Polygon-5-Copy-4" fill="url(#linearGradient-2)" transform="translate(30.500000, 24.500000) scale(-1, 1) translate(-30.500000, -24.500000) " points="38 40 21 9 40 15"></polygon>
                        <polygon id="Polygon-5-Copy-5" fill="url(#linearGradient-3)" transform="translate(11.500000, 27.500000) scale(-1, 1) translate(-11.500000, -27.500000) " points="0 40 23 20 2 15"></polygon>
                        <polygon id="Polygon-5-Copy-6" fill="url(#linearGradient-4)" transform="translate(10.500000, 10.000000) scale(-1, 1) translate(-10.500000, -10.000000) " points="3 0 21 20 2.22044605e-16 15"></polygon>
                        <polygon id="Polygon-5-Copy-7" fill="#CDCDCD" transform="translate(29.000000, 7.500000) scale(-1, 1) translate(-29.000000, -7.500000) " points="40 0 18 9 37 15"></polygon>
                    </g>
                    <g id="C" transform="translate(106.000000, 30.000000) scale(-1, 1) translate(-106.000000, -30.000000) translate(86.000000, 10.000000)">
                        <polygon id="Polygon-5-Copy-4" fill="url(#linearGradient-5)" transform="translate(30.500000, 24.500000) scale(-1, 1) translate(-30.500000, -24.500000) " points="38 40 21 9 40 15"></polygon>
                        <polygon id="Polygon-5-Copy-5" fill="url(#linearGradient-6)" transform="translate(11.500000, 27.500000) scale(-1, 1) translate(-11.500000, -27.500000) " points="0 40 23 20 2 15"></polygon>
                        <polygon id="Polygon-5-Copy-6" fill="url(#linearGradient-7)" transform="translate(10.500000, 10.000000) scale(-1, 1) translate(-10.500000, -10.000000) " points="3 0 21 20 2.22044605e-16 15"></polygon>
                        <polygon id="Polygon-5-Copy-7" fill="#CDCDCD" transform="translate(29.000000, 7.500000) scale(-1, 1) translate(-29.000000, -7.500000) " points="40 0 18 9 37 15"></polygon>
                    </g>
                    <g id="D" transform="translate(18.000000, 0.000000)">
                        <polygon id="Polygon-5-Copy-8" fill="url(#linearGradient-8)" transform="translate(67.500000, 14.500000) scale(-1, 1) translate(-67.500000, -14.500000) " points="90 10 67 19 45 10"></polygon>
                        <polygon id="Polygon-5-Copy-9" fill="#C1C0C0" transform="translate(67.500000, 5.000000) scale(-1, 1) translate(-67.500000, -5.000000) " points="90 10 67 0 45 10"></polygon>
                        <polygon id="Polygon-5-Copy-10" fill="#D4D4D4" transform="translate(45.000000, 5.000000) scale(-1, 1) translate(-45.000000, -5.000000) " points="45 10 22 -1.11022302e-16 68 -1.11022302e-16"></polygon>
                        <polygon id="Polygon-5-Copy-11" fill="#C1C0C0" transform="translate(22.500000, 5.000000) scale(-1, 1) translate(-22.500000, -5.000000) " points="2.84217095e-14 10 45 10 23 -1.11022302e-16"></polygon>
                        <polygon id="Polygon-5-Copy-12" fill="url(#linearGradient-9)" transform="translate(22.500000, 14.500000) scale(-1, 1) translate(-22.500000, -14.500000) " points="2.84217095e-14 10 45 10 23 19"></polygon>
                        <polygon id="Polygon-5-Copy-13" fill="url(#linearGradient-10)" transform="translate(45.000000, 14.500000) scale(-1, 1) translate(-45.000000, -14.500000) " points="45 10 22 19 68 19"></polygon>
                    </g>
                    <g id="E" transform="translate(23.000000, 50.000000)">
                        <polygon id="Polygon-5-Copy-14" fill="url(#linearGradient-11)" transform="translate(20.000000, 32.000000) scale(-1, 1) translate(-20.000000, -32.000000) " points="-2.84217094e-14 64 23 0 40 0"></polygon>
                        <polygon id="Polygon-5-Copy-15" fill="url(#linearGradient-12)" transform="translate(28.500000, 32.000000) scale(-1, 1) translate(-28.500000, -32.000000) " points="17 64 40 0 29.3911562 0"></polygon>
                        <polygon id="Polygon-5-Copy-16" fill="url(#linearGradient-13)" transform="translate(33.804422, 32.000000) scale(-1, 1) translate(-33.804422, -32.000000) " points="27.6088438 64 27.6088438 0 40 0"></polygon>
                        <polygon id="Polygon-5-Copy-19" fill="url(#linearGradient-11)" points="40 64 63 0 80 0"></polygon>
                        <polygon id="Polygon-5-Copy-18" fill="url(#linearGradient-12)" points="40 64 63 0 52.3911562 0"></polygon>
                        <polygon id="Polygon-5-Copy-17" fill="url(#linearGradient-13)" points="40 64 40 0 52.3911562 0"></polygon>
                    </g>
                    <g id="F" transform="translate(0.000000, 30.000000)">
                        <polygon id="Polygon-5-Copy-20" fill="url(#linearGradient-14)" transform="translate(31.500000, 42.000000) scale(-1, 1) translate(-31.500000, -42.000000) " points="-2.84217094e-14 84 63 0 40 20"></polygon>
                        <polygon id="Polygon-5-Copy-21" fill="url(#linearGradient-15)" points="63 84 126 0 103 20"></polygon>
                    </g>
                </g>
            </g>
            <g id="facebook" transform="translate(228.000000, 3.000000)">
                <rect id="Rectangle-4" fill="#4A639A" x="0" y="0" width="107" height="106.790001" rx="6"></rect>
                <polygon id="Path-1" fill="#FEFEFE" points="57.3132324 106.783386 57.3101807 65.444458 43.3656006 65.4401245 43.3638916 49.3265381 57.3118896 49.3258667 90.0244141 49.3291016 87.9379272 65.4164429 74.0211792 65.4448853 74.0136719 106.762268"></polygon>
                <path d="M74.03125,50.3334351 L74.0124512,38.9768066 C74.0124512,38.9768066 73.9701539,35.5532837 75.0267944,34.0020752 C76.083435,32.4508667 76.9434206,32.0971069 78.0264893,31.7283936 C79.1095579,31.3596802 79.318176,31.3781738 81.0352783,31.2156372 C82.7523807,31.0531006 90.6170654,31.2007446 90.6170654,31.2007446 L90.5793457,16.7879028 C90.5793457,16.7879028 84.9984133,16.2014771 82.0240479,16.2014771 C79.0496824,16.2014771 78.923706,16.0477295 77.0087891,16.1619873 C75.0938721,16.2762451 72.8759766,16.5151978 71.0227661,17.072998 C69.1695557,17.6307983 67.0407715,18.4528809 65.008667,19.9747314 C62.9765625,21.496582 62.2822876,22.2169795 60.4245605,24.9904785 C58.5668335,27.7639775 58.0407715,30.960815 57.795166,32.0112305 C57.5495605,33.0616459 57.3148193,35.6113887 57.3148193,37.0203857 C57.3148193,38.4293828 57.3193359,50.3130493 57.3193359,50.3130493 L74.03125,50.3334351 Z" id="Path-2" fill="#FEFEFE"></path>
            </g>
            <g id="github" transform="translate(430.000000, 1.000000)">
                <path d="M55.5,111 C86.1518036,111 111,86.1518036 111,55.5 C111,24.8481964 86.1518036,0 55.5,0 C24.8481964,0 0,24.8481964 0,55.5 C0,86.1518036 24.8481964,111 55.5,111 Z" id="Oval-1" fill="#161514"></path>
                <path d="M38.9742656,108.498066 C40.1827148,108.491371 40.7682311,108.013078 40.9365838,107.806555 C41.390478,107.24975 41.75,106.679884 41.75,106.017886 L41.75,95.304422 C40.9802123,95.4892846 39.8279768,95.7178837 38.231067,95.9181609 C34.86815,96.3399226 34.5839233,96.2114258 31.6367798,95.6351929 C28.6896362,95.05896 27.0968628,93.8639526 25.6760864,92.6975708 C24.2553101,91.531189 23.618103,90.2981567 23.0731201,89.2843628 C22.5281372,88.2705688 22.2164307,87.0097656 21.8401489,86.4512939 C21.4638672,85.8928223 20.2211304,83.8010254 19.7679443,83.3035889 C19.3147583,82.8061523 18.0744629,81.468811 17.21521,80.9361572 C16.355957,80.4035034 15.0698242,79.496521 14.8201294,79.0195313 C14.5704346,78.5425415 14.4880981,78.5432129 14.5962524,78.06427 C14.7044067,77.5853271 15.2874756,77.4517822 16.369873,77.2838135 C17.4522705,77.1158447 19.6687009,77.6581421 20.9804077,78.4390869 C22.2921145,79.2200317 24.1649778,80.5404662 25.3058472,82.4487915 C26.4467165,84.3571168 27.3218992,85.373413 27.6960449,85.7761841 C28.0701907,86.1789552 29.2792356,87.2348021 29.9458618,87.6075439 C30.612488,87.9802858 32.7820432,89.0224608 34.1148071,89.0224609 C35.447571,89.0224611 35.9880979,89.0681151 37.6460571,88.8994141 C39.3040163,88.730713 40.4763792,88.1519774 41.6314697,87.7172852 C41.7131037,87.686564 41.7964714,87.6563828 41.88092,87.6268186 C41.9516065,87.0437179 42.044139,86.4845577 42.1411673,86.0745487 C42.3468525,85.2053919 42.3862715,84.126394 44.1517427,81.5731384 C44.5643456,80.9764248 44.9789762,80.5257339 45.3937206,80.1805525 C45.0742708,80.1318583 41.2975449,79.5554597 40.2507935,79.3626709 C39.1575317,79.1613159 36.0651245,78.4203491 33.7479248,77.3500366 C31.4307251,76.2797241 29.3364868,75.0258789 28.1343384,73.9768677 C26.9321899,72.9278564 25.1553955,71.189209 23.8974609,69.0911255 C22.6395264,66.993042 21.8056641,65.0643921 21.15271,62.4882202 C20.4997559,59.9120483 20.006897,56.8898926 20.006897,53.6090088 C20.006897,50.328125 20.2403564,48.3274536 21.0901489,45.5563965 C21.9399414,42.7853394 23.3181152,40.7443848 24.5604858,39.0843506 C24.9425326,38.5738663 25.3478512,38.117181 25.7260005,37.7294806 C25.7256444,37.7287055 25.7253257,37.7279323 25.7250445,37.7271608 C25.5670809,37.2937872 25.4560511,36.9833809 25.1966833,36.0570141 C24.9373154,35.1306473 24.6218358,33.4255053 24.6218358,31.9852527 C24.6218358,30.545 24.6548911,29.5081259 24.8803083,27.9728115 C24.9896361,27.2281804 25.259266,26.0450706 25.5752564,25.0078735 C25.9107893,23.9065303 26.2902664,22.9716984 26.2902664,22.9716984 L26.5038941,22.9142435 C26.5038941,22.9142435 26.965639,22.8202044 27.6972045,22.8356934 C28.0803907,22.8438063 28.536796,22.9112185 29.041386,22.9749816 C30.5093212,23.1604788 31.7328869,23.5529629 32.9629439,24.0285701 C34.1930009,24.5041772 36.7379543,25.6452166 38.0594918,26.4418997 C39.3810294,27.2385827 41.6329626,28.6757013 41.6329626,28.6757013 L41.6186631,28.7156862 C43.1846097,28.2993359 47.0211441,27.3393131 49.8059082,27.1397705 C53.3851318,26.8833008 51.4064941,26.8894043 55.0401001,26.8070679 C58.6737061,26.7247314 60.9050903,27.079895 63.1168213,27.350647 C65.3187585,27.6202 67.9921395,28.3067507 69.5303241,28.6791921 C69.7793066,28.5134158 72.2906486,26.8465355 73.7010822,26.1146609 C75.1861893,25.3440383 76.3434863,24.6541621 78.1568235,24.0190259 C79.9701606,23.3838896 81.3829096,23.0099387 82.9780564,22.8540385 C84.5732032,22.6981382 84.8364715,22.990573 84.8364715,22.990573 C84.8364715,22.990573 85.7681817,25.5893541 86.0384554,26.9877723 C86.3087291,28.3861904 86.3809466,29.265454 86.4806389,30.9151305 C86.5803311,32.564807 86.311945,34.2250393 86.1752002,34.9661602 C86.0384554,35.7072811 85.6250051,37.2081181 85.3880787,37.6943448 C85.382418,37.7059619 85.3719123,37.7192765 85.3567964,37.7342009 C85.3709267,37.7501772 85.3850632,37.7661717 85.399206,37.7821841 C87.4126968,40.0618529 88.6686401,41.920959 89.8258057,44.9844971 C90.9829712,48.0480351 91.09729,50.5346065 91.09729,53.9770508 C91.09729,57.4194951 90.5653076,59.8925796 89.8392944,63.0056763 C89.1132812,66.118773 87.8032227,68.2227187 85.9867554,70.8534546 C84.1702881,73.4841905 80.7561646,75.7836928 78.0422974,77.0443115 C75.3284302,78.3049302 71.9979248,79.1322646 69.8515625,79.5281982 C68.7282209,79.735418 67.2658946,79.9498112 65.6840243,80.1571404 C66.453882,80.8009744 67.1418374,81.6008559 67.6030273,82.5690522 C68.8649979,85.2183621 68.6178665,84.4925537 68.9503956,86.0745487 C69.2271595,87.391243 69.3546734,88.1846352 69.389658,89 L69.3999996,89 L69.3999996,106.017886 C69.3999996,106.690505 69.5930517,107.02599 70.1508005,107.806555 C70.3403118,108.071774 71.0795814,108.446156 72.0413018,108.493214 C66.8168344,110.122259 61.2609209,111 55.5,111 C49.7448006,111 44.1942018,110.124001 38.9742656,108.498066 Z" id="Combined-Shape" fill="#FFFFFF"></path>
            </g>
            <g id="swift" transform="translate(635.000000, 1.000000)">
                <rect id="Rectangle-6" fill="url(#linearGradient-16)" x="0" y="0" width="111" height="111" rx="24"></rect>
                <path d="M0,54.2755688 L10.3705196,62.0341607 C16.7749127,70.1418004 26.7697857,75.4223709 38,75.4223709 C43.30773,75.4223709 50.4928127,74.3796759 55,72.3257751 C58.7000668,70.6396748 61.9872886,67.8383845 64.8427277,65.0645294 C71.1764819,58.9117396 73,50.3888407 73,41 C73,33.1987136 70.2953041,26.0110938 65.7471429,20.2737644 L65.8097763,20.2008215 L47.3365864,5.32907052e-15 L23.9999057,0 C10.7440033,0 0,10.7451238 0,23.9999057 L0,54.2755688 Z" id="Combined-Shape" fill="url(#linearGradient-17)"></path>
                <path d="M94.286757,90.79637 C94.286757,90.79637 95.3471108,86.1871399 94.4211609,81.721804 C93.4952109,77.2564682 91.7487308,73.5362525 90.4252123,71.7094892 C89.1016938,69.882726 87.8353739,69.0442411 88.3614468,66.954826 C88.8875198,64.8654109 89.6390526,61.3929706 89.3643455,56.7188469 C89.0896385,52.0447231 87.8376823,46.5631509 86.5567422,43.5498379 C85.275802,40.5365248 80.7291569,31.7733447 77.7445714,28.7718305 C74.7599859,25.7703163 70.4564988,20.9938509 67.8976964,19.1929937 C65.338894,17.3921365 62.043179,14.2900757 63.8530136,17.1602643 C65.6628483,20.0304528 68.3501552,25.2883606 70.2684874,29.9745395 C72.1868195,34.6607184 72.3925288,38.5091814 72.3925294,42.4543442 C72.39253,46.399507 71.8325989,52.20093 70.7804531,54.68227 C69.7283072,57.1636099 63.6887256,52.4516333 62.8056105,51.5059332 C61.9224953,50.5602332 52.9750253,43.8196723 50.324654,41.2836972 C47.6742827,38.7477221 40.3618429,33.208182 38.1921447,30.9900065 C36.0224464,28.771831 31.8187362,24.9059253 31.001284,23.8966143 C30.1838318,22.8873033 28.8859629,21.6727959 30.1122695,23.66782 C31.338576,25.6628441 38.9616325,35.745182 40.5170229,37.9579723 C42.0724133,40.1707625 46.6488114,45.5738478 47.8125338,46.7832243 C48.9762562,47.9926008 51.3839812,50.6319456 51.9239055,51.2147028 C52.4638298,51.79746 53.3364987,53.0785353 51.2164704,51.5059317 C49.0964421,49.9333281 42.2037598,45.538963 39.9532311,43.609387 C37.7027024,41.6798109 30.1156424,36.3157337 27.6148332,34.0289341 C25.1140241,31.7421345 22.03924,29.648654 20.497174,27.9050424 C18.955108,26.1614308 18.8120194,26.587799 19.512256,27.679815 C20.2124925,28.771831 25.3785138,35.0736807 26.6123408,36.8241469 C27.8461677,38.574613 36.0908373,48.3298148 37.9456286,50.4150683 C39.80042,52.5003218 48.8563828,61.7332747 50.728997,63.2879294 C52.6016113,64.8425841 56.4570257,68.0006278 57.4100367,68.9062747 C58.3630478,69.8119215 58.1157571,69.9051528 57.7628971,70.1705145 C57.4100372,70.4358763 50.5662152,72.9532621 48.8143772,73.5089155 C47.0625393,74.0645689 39.6857505,74.5765947 36.0067037,74.0427555 C32.3276569,73.5089163 25.3434891,71.6331843 22.5343165,70.2697293 C19.7251438,68.9062742 16.4744906,67.5935477 13.5556333,65.4407393 C10.636776,63.2879309 10.7743804,63.534719 11.3272906,64.4877295 C11.8802008,65.44074 16.8305914,71.7732802 18.5432921,73.4569399 C20.2559927,75.1405997 27.7088128,82.4377428 34.8277187,85.4150562 C41.9466246,88.3923697 48.4200098,91.0451144 57.7898197,90.3114773 C67.1596296,89.5778403 71.7105458,88.2080273 76.3202882,85.0335282 C80.9300306,81.8590292 87.4615027,83.4553168 89.1896594,85.164028 C90.917816,86.8727392 94.286757,90.79637 94.286757,90.79637 Z" id="Path-7" fill="#FFFFFF"></path>
            </g>
            <g id="phalcon" transform="translate(847.000000, 1.000000)">
                <polygon id="Polygon-31-Copy-2" fill="#73B395" points="35.1406848 39.1871973 54.1147405 20.6806048 60.3675618 11.7916701 29.0563596 36.2751758 20.2813552 54.0638566"></polygon>
                <polygon id="Polygon-31-Copy-3" fill="#CFE8DB" points="39.0962972 39.9861592 58.5368166 20.9909808 62.2222894 17.3879779 68.4015546 0.528961194 28.2682036 35.5265118 23.224183 57.2753925"></polygon>
                <polygon id="Polygon-31-Copy" fill="#ACDBC2" points="38.9743507 39.9301483 70.3352846 9.56459417 68.9568769 17.4941493 58.3217474 29.8772898 23.224183 57.2753925"></polygon>
                <polygon id="Polygon-31-Copy-4" fill="#71B393" points="47.6887048 57.1363495 59.9032894 53.5870377 71.9715664 45.2768085 85.6144841 34.7140273 95.2657972 21.2490091 84.1024482 27.6905063 82.2892204 30.1834199 43.7209535 52.1398293 46.1565903 57.9604575"></polygon>
                <polygon id="Polygon-31-Copy-5" fill="#474546" points="73.7485281 49.0277755 77.5275547 46.5088048 89.4833891 35.6363085 81.4201582 38.0197616 71.7347072 45.3863424 59.7612775 53.4402473"></polygon>
                <polygon id="Polygon-37" fill="#474747" points="0.727176109 68.9702722 5.54456441 71.6368407 4.59643048 74.7214538 5.72742993 76.7676249 3.40062252 76.7676249 0.727176109 74.4948813"></polygon>
                <polygon id="Polygon-37-Copy" fill="#72B293" points="0.727176109 68.9702722 5.54456441 71.6368407 11.0505009 68.5717085 13.4592826 67.4958846 22.0247153 64.0160427 15.5687191 64.0160427 22.0247153 61.0799038 14.0057773 60.0161897 4.80276735 62.7196136"></polygon>
                <polygon id="Polygon-37-Copy-2" fill="#CFE8DB" points="5.24563242 72.7452935 5.54456441 71.6368407 11.0505009 68.5717085 13.4592826 67.4958846 22.0247153 64.0160427 15.5687191 64.0160427 22.0247153 61.0799038 14.0106768 60.0237015 25.2672224 56.7157651 24.8260076 57.6348296 24.8260076 67.4958847 23.6933385 69.5506597 15.2153386 69.5506596"></polygon>
                <polygon id="Polygon-37-Copy-3" fill="#86CCAB" points="26.0959724 65.6103685 31.8835756 65.2139836 46.3099163 57.8755981 43.7882056 52.1053952 25.2672224 56.7157651 24.8260076 57.6348296 24.8260076 67.4958847"></polygon>
                <polygon id="Polygon-41" fill="#CFE8DB" points="47.4650633 57.2179347 81.9365064 46.6041816 65.1215509 58.3139962 46.1562264 64.1404419 31.8218723 65.1800664"></polygon>
                <polygon id="Polygon-43" fill="#ACDBC2" points="66.8220366 57.1114987 74.356008 55.7822515 61.7008888 62.5726793 57.4823405 63.2617029 45.1914215 64.270646 64.9671442 58.3440425"></polygon>
                <polygon id="Polygon-55" fill="#474747" points="29.4098462 85.6312929 26.3823969 88.4500183 27.7613915 84.9951039 30.8566242 83.3416416 30.5316197 82.6747437 27.1105454 84.1282309 26.9931797 82.6747437 32.048901 80.3828914 33.9858536 84.9951039 33.2857391 84.9951039 33.5631483 88.8798388 29.5708318 93.8366624 30.1852757 85.7771865"></polygon>
                <polygon id="Polygon-46-Copy" fill="#639C81" points="45.3443759 81.0437804 44.5059221 79.890919 37.7898368 79.890919 36.2538066 83.4121939 33.2204682 85.4728198 33.2204682 88.3507674 41.7088895 91.7666884 44.3740753 86.1372888"></polygon>
                <polygon id="Polygon-44" fill="#474747" points="27.0754528 69.5096066 44.2093978 80.3284565 38.0308496 80.3284565 28.1753341 72.1065174 19.336384 69.5096066"></polygon>
                <polygon id="Polygon-41-Copy" fill="#639C81" points="23.2955741 70.2817797 29.6193294 69.0285855 57.6246279 66.1966784 66.7893879 63.1211657 58.4150578 63.1211657 56.3001058 63.3150756 46.1562264 64.1404419 32.29216 65.0034379 25.9081472 65.5737258"></polygon>
                <polygon id="Polygon-52" fill="#474546" points="70.3612032 76.7952018 75.8119891 81.0415198 75.8119891 83.7416702"></polygon>
                <polygon id="Polygon-52-Copy" fill="#639C81" points="71.4527897 96.7965542 70.3667885 99.7666039 69.4089907 105.177802 71.4527897 103.950387"></polygon>
                <polygon id="Polygon-54" fill="#474747" points="33.3614839 96.761056 38.3034574 94.5100546 41.2124368 101.511426 35.8013629 107.948368 36.4807602 99.8441738 35.8013629 99.6980666 32.7786486 102.473198 33.9971194 99.1875218 37.2192843 97.4573291 36.7715751 96.8535805 33.3614839 98.1667338"></polygon>
                <polygon id="Polygon-48" fill="#86CCAB" points="45.8111273 81.8267776 53.7914055 87.1299635 44.5252607 105.169292 39.144626 103.283502 39.3439256 99.2442108 45.1133526 93.874361"></polygon>
                <polygon id="Polygon-44-Copy" fill="#D0E9DB" points="27.0754528 69.5096066 47.6363688 83.0190577 54.8864982 98.0129591 53.3181971 111.668025 63.2893774 91.506421 55.1125139 78.7854918 40.167385 67.9762641 29.3586421 69.0173545"></polygon>
                <polygon id="Polygon-48-Copy" fill="#71B393" points="49.2868252 80.2426487 55.9527721 95.0514857 45.1133528 109.777418 47.648349 102.965299 47.6483491 82.7848641"></polygon>
                <polygon id="Polygon-50" fill="#ACDBC2" points="56.7932875 66.2721463 60.9351534 68.3063398 46.4889817 67.289243"></polygon>
                <polygon id="Polygon-51" fill="#484848" points="55.1715092 78.8638643 45.4896002 71.9391649 68.5294124 85.8029221 68.3135824 95.3306621 64.3480572 108.549417 64.3480572 101.479984"></polygon>
                <polygon id="Polygon-52" fill="#86CCAB" points="47.5572547 64.8182097 66.0868307 76.8296206 72.3704325 85.7511979 74.5849604 93.4984528 68.2740478 85.7511979 39.2201292 68.3505637"></polygon>
                <polygon id="Polygon-31" fill="#474546" points="38.9743507 39.9301483 97.3257973 9.38690142 82.3907942 30.1279015 43.7728722 52.1809613 23.224183 57.2753925"></polygon>
                <polygon id="Rectangle-9" fill="#454646" points="2.49851513 68.6209198 4.91431808 67.260896 6.59463692 68.5238121 6.46823215 68.6209198 4.86230755 67.500107 2.6115551 68.8187875"></polygon>
            </g>
            <g id="python" transform="translate(1044.000000, 0.000000)">
                <g id="half" transform="translate(28.966102, 29.915966)" fill="#FFCC3D">
                    <path d="M54.0677966,54.1008403 L54.0677966,28.9159664 L15.007036,28.9159664 C6.71118043,28.9159664 0,35.6338953 0,43.9208806 L0,63.0768235 C0,73.571153 8.50894326,82.0840336 19.0052567,82.0840336 L35.0625399,82.0840336 C45.5602255,82.0840336 54.0677966,73.5742158 54.0677966,63.0768235 L54.0677966,56.8991597 L27.0338983,56.8991597 L27.0338983,54.1008403 L54.0677966,54.1008403 Z M41.9491525,74.6218487 C45.0382028,74.6218487 47.5423729,72.1161483 47.5423729,69.0252101 C47.5423729,65.9342719 45.0382028,63.4285714 41.9491525,63.4285714 C38.8601022,63.4285714 36.3559322,65.9342719 36.3559322,69.0252101 C36.3559322,72.1161483 38.8601022,74.6218487 41.9491525,74.6218487 Z" id="Combined-Shape"></path>
                    <path d="M28.8820681,28.9159664 L28.8820681,39.0772825 C28.8820681,47.373138 35.599997,54.0843185 43.8869823,54.0843185 L63.0429252,54.0843185 C73.5372547,54.0843185 82.0501353,45.5753752 82.0501353,35.0790618 L82.0501353,19.0217786 C82.0501353,8.52409298 73.5403175,0.016521863 63.0429252,0.016521863 L57.7966102,0.016521863 L57.7966102,9.90875624 C57.7966102,20.4061485 49.289039,28.9159664 38.7913535,28.9159664 L28.8820681,28.9159664 Z" id="Combined-Shape"></path>
                </g>
                <g id="half-copy" transform="translate(41.533898, 41.584034) scale(-1, -1) translate(-41.533898, -41.584034) translate(0.033898, 0.084034)" fill="#366D9B">
                    <path d="M54.0677966,54.1008403 L54.0677966,28.9159664 L15.007036,28.9159664 C6.71118043,28.9159664 -4.26325641e-14,35.6338953 -4.26325641e-14,43.9208806 L-4.26325641e-14,63.0768235 C-4.26325641e-14,73.571153 8.50894326,82.0840336 19.0052567,82.0840336 L35.0625399,82.0840336 C45.5602255,82.0840336 54.0677966,73.5742158 54.0677966,63.0768235 L54.0677966,56.8991597 L27.0338983,56.8991597 L27.0338983,54.1008403 L54.0677966,54.1008403 Z M41.9491525,74.6218487 C45.0382028,74.6218487 47.5423729,72.1161483 47.5423729,69.0252101 C47.5423729,65.9342719 45.0382028,63.4285714 41.9491525,63.4285714 C38.8601022,63.4285714 36.3559322,65.9342719 36.3559322,69.0252101 C36.3559322,72.1161483 38.8601022,74.6218487 41.9491525,74.6218487 Z" id="Combined-Shape"></path>
                    <path d="M28.8820681,28.9159664 L28.8820681,39.0772825 C28.8820681,47.373138 35.599997,54.0843185 43.8869823,54.0843185 L63.0429252,54.0843185 C73.5372547,54.0843185 82.0501353,45.5753752 82.0501353,35.0790618 L82.0501353,19.0217786 C82.0501353,8.52409298 73.5403175,0.016521863 63.0429252,0.016521863 L57.7966102,0.016521863 L57.7966102,9.90875624 C57.7966102,20.4061485 49.289039,28.9159664 38.7913535,28.9159664 L28.8820681,28.9159664 Z" id="Combined-Shape"></path>
                </g>
            </g>
            <g id="r" transform="translate(1243.000000, 8.000000)">
                <path d="M63,84.6 C97.7939392,84.6 126,65.6616449 126,42.3 C126,18.9383551 97.7939392,0 63,0 C28.2060608,0 0,18.9383551 0,42.3 C0,65.6616449 28.2060608,84.6 63,84.6 Z M72,75.6 C97.8469263,75.6 118.8,62.5043289 118.8,46.35 C118.8,30.1956711 97.8469263,17.1 72,17.1 C46.1530737,17.1 25.2,30.1956711 25.2,46.35 C25.2,62.5043289 46.1530737,75.6 72,75.6 Z" id="Combined-Shape" fill="url(#linearGradient-18)"></path>
                <path d="M52.4883985,27.2025716 L52.4423513,97.3241449 L73.0062048,97.2149805 L72.9794124,69.1951425 L79.3455475,69.2872822 C79.3455475,69.2872822 83.9379372,72.3494572 88.3127235,80.2449372 C92.6875097,88.1404172 95.2242895,93.3446739 96.2970758,95.4593161 C97.3698621,97.5739584 97.297761,98.1204765 97.297761,98.1204765 L120.717802,98.071466 C120.717802,98.071466 106.20547,72.5875398 103.491161,70.2034515 C100.776853,67.8193632 95.9306952,66.3192073 95.9306952,66.3192073 C95.9306952,66.3192073 106.569018,64.0220307 110.637979,57.8044526 C114.70694,51.5868745 114.073505,44.9369135 114.073505,44.9369135 C114.073505,44.9369135 114.053902,36.2267704 107.007936,30.8763503 C99.9619695,25.5259302 81.4928595,27.1092956 75.6248894,27.1092956 C69.7569194,27.1092956 52.4883985,27.2025716 52.4883985,27.2025716 Z M73.0279327,42.2494095 L72.9841821,54.1162861 L87.6167742,54.0460756 C87.6167742,54.0460756 92.4497682,53.0505542 92.4497684,47.978111 C92.4497686,42.9056677 87.289824,42.2981377 87.289824,42.2981377 L73.0279327,42.2494095 Z" id="Combined-Shape" fill="url(#linearGradient-19)"></path>
            </g>
        </g>
    </g>
</svg>