<?xml version="1.0" encoding="UTF-8" standalone="no"?>
<svg width="1380px" height="114px" viewBox="0 0 1380 114" version="1.1" xmlns="http://www.w3.org/2000/svg" xmlns:xlink="http://www.w3.org/1999/xlink">
    <!-- Generator: Sketch 3.7.1 (28215) - http://www.bohemiancoding.com/sketch -->
    <title>All_logo</title>
    <desc>Created with Sketch.</desc>
    <defs>
        <linearGradient x1="50%" y1="227.264143%" x2="50%" y2="0%" id="linearGradient-1">
            <stop stop-color="#BAB6B6" offset="0%"></stop>
            <stop stop-color="#362C2C" offset="100%"></stop>
        </linearGradient>
        <linearGradient x1="134.573726%" y1="50%" x2="-9.5499325%" y2="19.2804471%" id="linearGradient-2">
            <stop stop-color="#CAC8C8" offset="0%"></stop>
            <stop stop-color="#5A4F4F" offset="100%"></stop>
        </linearGradient>
        <linearGradient x1="110.992279%" y1="58.427064%" x2="-17.3922002%" y2="30.1195428%" id="linearGradient-3">
            <stop stop-color="#E9E9E9" offset="0%"></stop>
            <stop stop-color="#705454" offset="100%"></stop>
        </linearGradient>
        <linearGradient x1="100%" y1="50%" x2="-14.8115652%" y2="76.8961193%" id="linearGradient-4">
            <stop stop-color="#D4CECE" offset="0%"></stop>
            <stop stop-color="#554343" offset="100%"></stop>
        </linearGradient>
        <linearGradient x1="214.155893%" y1="94.5523617%" x2="0%" y2="7.9213757%" id="linearGradient-5">
            <stop stop-color="#CAC8C8" offset="0%"></stop>
            <stop stop-color="#473D3D" offset="100%"></stop>
        </linearGradient>
        <linearGradient x1="191.650773%" y1="25.0145623%" x2="-45.5462153%" y2="50%" id="linearGradient-6">
            <stop stop-color="#E9E9E9" offset="0%"></stop>
            <stop stop-color="#393232" offset="100%"></stop>
        </linearGradient>
        <linearGradient x1="130.64247%" y1="116.54931%" x2="-19.0663171%" y2="20.9934203%" id="linearGradient-7">
            <stop stop-color="#D4CECE" offset="0%"></stop>
            <stop stop-color="#625353" offset="100%"></stop>
        </linearGradient>
        <linearGradient x1="50%" y1="0%" x2="50%" y2="100%" id="linearGradient-8">
            <stop stop-color="#D5D4D4" offset="0%"></stop>
            <stop stop-color="#2C2727" offset="100%"></stop>
        </linearGradient>
        <linearGradient x1="50%" y1="0%" x2="50%" y2="100%" id="linearGradient-9">
            <stop stop-color="#D5D4D4" offset="0%"></stop>
            <stop stop-color="#1C1616" offset="100%"></stop>
        </linearGradient>
        <linearGradient x1="50%" y1="0%" x2="50%" y2="100%" id="linearGradient-10">
            <stop stop-color="#DBD8D8" offset="0%"></stop>
            <stop stop-color="#4D3F3F" offset="100%"></stop>
        </linearGradient>
        <linearGradient x1="0%" y1="67.8892507%" x2="0%" y2="-28.6467392%" id="linearGradient-11">
            <stop stop-color="#DAD9D9" offset="0%"></stop>
            <stop stop-color="#514949" offset="100%"></stop>
        </linearGradient>
        <linearGradient x1="0%" y1="66.320808%" x2="0%" y2="-27.6641596%" id="linearGradient-12">
            <stop stop-color="#E0DFDF" offset="0%"></stop>
            <stop stop-color="#4C4141" offset="100%"></stop>
        </linearGradient>
        <linearGradient x1="0%" y1="67.5428914%" x2="0%" y2="-27.436938%" id="linearGradient-13">
            <stop stop-color="#E9E9E9" offset="0%"></stop>
            <stop stop-color="#4C4545" offset="100%"></stop>
        </linearGradient>
        <linearGradient x1="100%" y1="0%" x2="26.9007389%" y2="74.1864956%" id="linearGradient-14">
            <stop stop-color="#7A6969" offset="0%"></stop>
            <stop stop-color="#DCC9C9" offset="100%"></stop>
        </linearGradient>
        <linearGradient x1="34.1461041%" y1="63.5322977%" x2="100%" y2="0%" id="linearGradient-15">
            <stop stop-color="#CAC6C6" offset="0%"></stop>
            <stop stop-color="#655B5B" offset="100%"></stop>
        </linearGradient>
    </defs>
    <g id="All" stroke="none" stroke-width="1" fill="none" fill-rule="evenodd">
        <g id="All_logo">
            <g id="sketch" transform="translate(12.000000, -1.000000)">
                <g id="layer-1">
                    <polygon id="Rectangle-1" fill="#FFE898" points="40 19 86 19 103 50 23 50"></polygon>
                    <polygon id="Rectangle-2" fill="#F8CA4A" points="18 10 40 19 23 50 0 30"></polygon>
                    <polygon id="Rectangle-2-Copy" fill="#F8CA4A" transform="translate(106.000000, 30.000000) scale(-1, 1) translate(-106.000000, -30.000000) " points="104 10 126 19 109 50 86 30"></polygon>
                    <polygon id="Polygon-1" fill="#FAB32A" points="86 8.8817842e-16 108 10 86 19 40 19 18 10 40 8.8817842e-16"></polygon>
                    <polygon id="Polygon-2" fill="#D33A04" points="0 30.1590296 23 50.0000006 63 114.000003"></polygon>
                    <polygon id="Polygon-2-Copy" fill="#D33A04" transform="translate(94.500000, 72.079516) scale(-1, 1) translate(-94.500000, -72.079516) " points="63 30.1590296 86 50.0000006 126 114.000003"></polygon>
                    <polygon id="Polygon-2-Copy-2" fill="#DE5B0F" transform="translate(63.006001, 82.000002) scale(-1, 1) translate(-63.006001, -82.000002) " points="23.012001 50.0000006 103 50.0000006 63.012001 114.000003"></polygon>
                </g>
                <g id="layer-2" style="mix-blend-mode: overlay;">
                    <g id="A" transform="translate(23.000000, 19.000000)">
                        <polygon id="Polygon-5" fill="#ABA8A8" points="16.9999996 0 40 13.2697258 0 31"></polygon>
                        <polygon id="Polygon-5-Copy" fill="#ABA8A8" transform="translate(60.000000, 15.500000) scale(-1, 1) translate(-60.000000, -15.500000) " points="56.9999996 0 80 13.2697258 40 31"></polygon>
                        <polygon id="Polygon-5-Copy-2" fill="#E2E2E2" transform="translate(40.000000, 6.634863) scale(-1, 1) translate(-40.000000, -6.634863) " points="63 0 40 13.2697258 17 0"></polygon>
                        <polygon id="Polygon-5-Copy-3" fill="url(#linearGradient-1)" transform="translate(40.000000, 22.134863) scale(-1, 1) translate(-40.000000, -22.134863) " points="80 31 40 13.2697258 0 31"></polygon>
                    </g>
                    <g id="B" transform="translate(0.000000, 10.000000)">
                        <polygon id="Polygon-5-Copy-4" fill="url(#linearGradient-2)" transform="translate(30.500000, 24.500000) scale(-1, 1) translate(-30.500000, -24.500000) " points="38 40 21 9 40 15"></polygon>
                        <polygon id="Polygon-5-Copy-5" fill="url(#linearGradient-3)" transform="translate(11.500000, 27.500000) scale(-1, 1) translate(-11.500000, -27.500000) " points="0 40 23 20 2 15"></polygon>
                        <polygon id="Polygon-5-Copy-6" fill="url(#linearGradient-4)" transform="translate(10.500000, 10.000000) scale(-1, 1) translate(-10.500000, -10.000000) " points="3 0 21 20 2.22044605e-16 15"></polygon>
                        <polygon id="Polygon-5-Copy-7" fill="#CDCDCD" transform="translate(29.000000, 7.500000) scale(-1, 1) translate(-29.000000, -7.500000) " points="40 0 18 9 37 15"></polygon>
                    </g>
                    <g id="C" transform="translate(106.000000, 30.000000) scale(-1, 1) translate(-106.000000, -30.000000) translate(86.000000, 10.000000)">
                        <polygon id="Polygon-5-Copy-4" fill="url(#linearGradient-5)" transform="translate(30.500000, 24.500000) scale(-1, 1) translate(-30.500000, -24.500000) " points="38 40 21 9 40 15"></polygon>
                        <polygon id="Polygon-5-Copy-5" fill="url(#linearGradient-6)" transform="translate(11.500000, 27.500000) scale(-1, 1) translate(-11.500000, -27.500000) " points="0 40 23 20 2 15"></polygon>
                        <polygon id="Polygon-5-Copy-6" fill="url(#linearGradient-7)" transform="translate(10.500000, 10.000000) scale(-1, 1) translate(-10.500000, -10.000000) " points="3 0 21 20 2.22044605e-16 15"></polygon>
                        <polygon id="Polygon-5-Copy-7" fill="#CDCDCD" transform="translate(29.000000, 7.500000) scale(-1, 1) translate(-29.000000, -7.500000) " points="40 0 18 9 37 15"></polygon>
                    </g>
                    <g id="D" transform="translate(18.000000, 0.000000)">
                        <polygon id="Polygon-5-Copy-8" fill="url(#linearGradient-8)" transform="translate(67.500000, 14.500000) scale(-1, 1) translate(-67.500000, -14.500000) " points="90 10 67 19 45 10"></polygon>
                        <polygon id="Polygon-5-Copy-9" fill="#C1C0C0" transform="translate(67.500000, 5.000000) scale(-1, 1) translate(-67.500000, -5.000000) " points="90 10 67 0 45 10"></polygon>
                        <polygon id="Polygon-5-Copy-10" fill="#D4D4D4" transform="translate(45.000000, 5.000000) scale(-1, 1) translate(-45.000000, -5.000000) " points="45 10 22 -1.11022302e-16 68 -1.11022302e-16"></polygon>
                        <polygon id="Polygon-5-Copy-11" fill="#C1C0C0" transform="translate(22.500000, 5.000000) scale(-1, 1) translate(-22.500000, -5.000000) " points="2.84217095e-14 10 45 10 23 -1.11022302e-16"></polygon>
                        <polygon id="Polygon-5-Copy-12" fill="url(#linearGradient-9)" transform="translate(22.500000, 14.500000) scale(-1, 1) translate(-22.500000, -14.500000) " points="2.84217095e-14 10 45 10 23 19"></polygon>
                        <polygon id="Polygon-5-Copy-13" fill="url(#linearGradient-10)" transform="translate(45.000000, 14.500000) scale(-1, 1) translate(-45.000000, -14.500000) " points="45 10 22 19 68 19"></polygon>
                    </g>
                    <g id="E" transform="translate(23.000000, 50.000000)">
                        <polygon id="Polygon-5-Copy-14" fill="url(#linearGradient-11)" transform="translate(20.000000, 32.000000) scale(-1, 1) translate(-20.000000, -32.000000) " points="-2.84217094e-14 64 23 0 40 0"></polygon>
                        <polygon id="Polygon-5-Copy-15" fill="url(#linearGradient-12)" transform="translate(28.500000, 32.000000) scale(-1, 1) translate(-28.500000, -32.000000) " points="17 64 40 0 29.3911562 0"></polygon>
                        <polygon id="Polygon-5-Copy-16" fill="url(#linearGradient-13)" transform="translate(33.804422, 32.000000) scale(-1, 1) translate(-33.804422, -32.000000) " points="27.6088438 64 27.6088438 0 40 0"></polygon>
                        <polygon id="Polygon-5-Copy-19" fill="url(#linearGradient-11)" points="40 64 63 0 80 0"></polygon>
                        <polygon id="Polygon-5-Copy-18" fill="url(#linearGradient-12)" points="40 64 63 0 52.3911562 0"></polygon>
                        <polygon id="Polygon-5-Copy-17" fill="url(#linearGradient-13)" points="40 64 40 0 52.3911562 0"></polygon>
                    </g>
                    <g id="F" transform="translate(0.000000, 30.000000)">
                        <polygon id="Polygon-5-Copy-20" fill="url(#linearGradient-14)" transform="translate(31.500000, 42.000000) scale(-1, 1) translate(-31.500000, -42.000000) " points="-2.84217094e-14 84 63 0 40 20"></polygon>
                        <polygon id="Polygon-5-Copy-21" fill="url(#linearGradient-15)" points="63 84 126 0 103 20"></polygon>
                    </g>
                </g>
            </g>
            <g id="facebook" transform="translate(228.000000, 3.000000)">
                <rect id="Rectangle-4" fill="#4A639A" x="0" y="0" width="107" height="106.790001" rx="6"></rect>
                <polygon id="Path-1" fill="#FEFEFE" points="57.3132324 106.783386 57.3101807 65.444458 43.3656006 65.4401245 43.3638916 49.3265381 57.3118896 49.3258667 90.0244141 49.3291016 87.9379272 65.4164429 74.0211792 65.4448853 74.0136719 106.762268"></polygon>
                <path d="M74.03125,50.3334351 L74.0124512,38.9768066 C74.0124512,38.9768066 73.9701539,35.5532837 75.0267944,34.0020752 C76.083435,32.4508667 76.9434206,32.0971069 78.0264893,31.7283936 C79.1095579,31.3596802 79.318176,31.3781738 81.0352783,31.2156372 C82.7523807,31.0531006 90.6170654,31.2007446 90.6170654,31.2007446 L90.5793457,16.7879028 C90.5793457,16.7879028 84.9984133,16.2014771 82.0240479,16.2014771 C79.0496824,16.2014771 78.923706,16.0477295 77.0087891,16.1619873 C75.0938721,16.2762451 72.8759766,16.5151978 71.0227661,17.072998 C69.1695557,17.6307983 67.0407715,18.4528809 65.008667,19.9747314 C62.9765625,21.496582 62.2822876,22.2169795 60.4245605,24.9904785 C58.5668335,27.7639775 58.0407715,30.960815 57.795166,32.0112305 C57.5495605,33.0616459 57.3148193,35.6113887 57.3148193,37.0203857 C57.3148193,38.4293828 57.3193359,50.3130493 57.3193359,50.3130493 L74.03125,50.3334351 Z" id="Path-2" fill="#FEFEFE"></path>
            </g>
        </g>
    </g>
</svg>